<mxfile host="app.diagrams.net" modified="2023-09-27T08:19:55.850Z" agent="Mozilla/5.0 (Windows NT 10.0; Win64; x64) AppleWebKit/537.36 (KHTML, like Gecko) Chrome/114.0.0.0 Safari/537.36 Edg/114.0.1823.67" etag="4r6dLfgUUKWn8vdmGB8J" version="21.7.5" type="device">
  <diagram name="Page-1" id="uss29tOoLF7rF5cmtyeh">
    <mxGraphModel dx="1724" dy="995" grid="1" gridSize="10" guides="1" tooltips="1" connect="1" arrows="1" fold="1" page="1" pageScale="1" pageWidth="827" pageHeight="1169" math="0" shadow="0">
      <root>
        <mxCell id="0" />
        <mxCell id="1" parent="0" />
        <mxCell id="CA3ziQ1xt9Bmq2r24Wff-1" value="MoveableEntity&lt;br&gt;" style="swimlane;fontStyle=1;align=center;verticalAlign=top;childLayout=stackLayout;horizontal=1;startSize=26;horizontalStack=0;resizeParent=1;resizeParentMax=0;resizeLast=0;collapsible=1;marginBottom=0;whiteSpace=wrap;html=1;" parent="1" vertex="1">
          <mxGeometry x="270" y="30" width="250" height="170" as="geometry">
            <mxRectangle x="280" y="110" width="130" height="30" as="alternateBounds" />
          </mxGeometry>
        </mxCell>
        <mxCell id="CA3ziQ1xt9Bmq2r24Wff-2" value="+ Direction: enum&lt;br&gt;+CurrentDirection: Direction&lt;br&gt;+ XPos: int&lt;br&gt;+ YPos: int&lt;br&gt;+ HorizontalMoveSpeed: int&lt;br&gt;+ VerticalMoveSpeed: int" style="text;strokeColor=none;fillColor=none;align=left;verticalAlign=top;spacingLeft=4;spacingRight=4;overflow=hidden;rotatable=0;points=[[0,0.5],[1,0.5]];portConstraint=eastwest;whiteSpace=wrap;html=1;" parent="CA3ziQ1xt9Bmq2r24Wff-1" vertex="1">
          <mxGeometry y="26" width="250" height="94" as="geometry" />
        </mxCell>
        <mxCell id="CA3ziQ1xt9Bmq2r24Wff-3" value="" style="line;strokeWidth=1;fillColor=none;align=left;verticalAlign=middle;spacingTop=-1;spacingLeft=3;spacingRight=3;rotatable=0;labelPosition=right;points=[];portConstraint=eastwest;strokeColor=inherit;" parent="CA3ziQ1xt9Bmq2r24Wff-1" vertex="1">
          <mxGeometry y="120" width="250" height="8" as="geometry" />
        </mxCell>
        <mxCell id="CA3ziQ1xt9Bmq2r24Wff-4" value="# MoveableEnitiy()&lt;br&gt;+ Move(Direction): void" style="text;strokeColor=none;fillColor=none;align=left;verticalAlign=top;spacingLeft=4;spacingRight=4;overflow=hidden;rotatable=0;points=[[0,0.5],[1,0.5]];portConstraint=eastwest;whiteSpace=wrap;html=1;" parent="CA3ziQ1xt9Bmq2r24Wff-1" vertex="1">
          <mxGeometry y="128" width="250" height="42" as="geometry" />
        </mxCell>
        <mxCell id="CA3ziQ1xt9Bmq2r24Wff-10" value="" style="edgeStyle=orthogonalEdgeStyle;rounded=0;orthogonalLoop=1;jettySize=auto;html=1;entryX=0.248;entryY=1.019;entryDx=0;entryDy=0;entryPerimeter=0;endSize=15;endArrow=block;endFill=0;" parent="1" source="CA3ziQ1xt9Bmq2r24Wff-6" target="CA3ziQ1xt9Bmq2r24Wff-4" edge="1">
          <mxGeometry relative="1" as="geometry" />
        </mxCell>
        <mxCell id="CA3ziQ1xt9Bmq2r24Wff-6" value="SmartEntity" style="swimlane;fontStyle=1;align=center;verticalAlign=top;childLayout=stackLayout;horizontal=1;startSize=26;horizontalStack=0;resizeParent=1;resizeParentMax=0;resizeLast=0;collapsible=1;marginBottom=0;whiteSpace=wrap;html=1;" parent="1" vertex="1">
          <mxGeometry x="60" y="270" width="220" height="198" as="geometry">
            <mxRectangle x="50" y="250" width="110" height="30" as="alternateBounds" />
          </mxGeometry>
        </mxCell>
        <mxCell id="CA3ziQ1xt9Bmq2r24Wff-7" value="+ WeaponType: enum&lt;br&gt;+ weaponType: WeaponType&lt;br&gt;+ HealthPoints: int&lt;br&gt;+ FaceDirection: Direction&lt;br&gt;+ ShootXPos: int&lt;br&gt;+ ShootYPos: int&lt;br&gt;+ IsAlive: bool" style="text;strokeColor=none;fillColor=none;align=left;verticalAlign=top;spacingLeft=4;spacingRight=4;overflow=hidden;rotatable=0;points=[[0,0.5],[1,0.5]];portConstraint=eastwest;whiteSpace=wrap;html=1;" parent="CA3ziQ1xt9Bmq2r24Wff-6" vertex="1">
          <mxGeometry y="26" width="220" height="114" as="geometry" />
        </mxCell>
        <mxCell id="CA3ziQ1xt9Bmq2r24Wff-8" value="" style="line;strokeWidth=1;fillColor=none;align=left;verticalAlign=middle;spacingTop=-1;spacingLeft=3;spacingRight=3;rotatable=0;labelPosition=right;points=[];portConstraint=eastwest;strokeColor=inherit;" parent="CA3ziQ1xt9Bmq2r24Wff-6" vertex="1">
          <mxGeometry y="140" width="220" height="8" as="geometry" />
        </mxCell>
        <mxCell id="CA3ziQ1xt9Bmq2r24Wff-9" value="# SmartEntity()&lt;br&gt;+ Shoot(): Projectile" style="text;strokeColor=none;fillColor=none;align=left;verticalAlign=top;spacingLeft=4;spacingRight=4;overflow=hidden;rotatable=0;points=[[0,0.5],[1,0.5]];portConstraint=eastwest;whiteSpace=wrap;html=1;" parent="CA3ziQ1xt9Bmq2r24Wff-6" vertex="1">
          <mxGeometry y="148" width="220" height="50" as="geometry" />
        </mxCell>
        <mxCell id="XkH1eNv5dXrDn9QbZy__-2" style="edgeStyle=orthogonalEdgeStyle;rounded=0;orthogonalLoop=1;jettySize=auto;html=1;entryX=0.872;entryY=1.024;entryDx=0;entryDy=0;entryPerimeter=0;endSize=15;endArrow=block;endFill=0;" edge="1" parent="1" source="CA3ziQ1xt9Bmq2r24Wff-12" target="CA3ziQ1xt9Bmq2r24Wff-4">
          <mxGeometry relative="1" as="geometry">
            <Array as="points">
              <mxPoint x="488" y="223" />
            </Array>
          </mxGeometry>
        </mxCell>
        <mxCell id="CA3ziQ1xt9Bmq2r24Wff-12" value="Drop" style="swimlane;fontStyle=1;align=center;verticalAlign=top;childLayout=stackLayout;horizontal=1;startSize=26;horizontalStack=0;resizeParent=1;resizeParentMax=0;resizeLast=0;collapsible=1;marginBottom=0;whiteSpace=wrap;html=1;" parent="1" vertex="1">
          <mxGeometry x="630" y="180" width="160" height="86" as="geometry" />
        </mxCell>
        <mxCell id="CA3ziQ1xt9Bmq2r24Wff-13" value="+ field: type" style="text;strokeColor=none;fillColor=none;align=left;verticalAlign=top;spacingLeft=4;spacingRight=4;overflow=hidden;rotatable=0;points=[[0,0.5],[1,0.5]];portConstraint=eastwest;whiteSpace=wrap;html=1;" parent="CA3ziQ1xt9Bmq2r24Wff-12" vertex="1">
          <mxGeometry y="26" width="160" height="26" as="geometry" />
        </mxCell>
        <mxCell id="CA3ziQ1xt9Bmq2r24Wff-14" value="" style="line;strokeWidth=1;fillColor=none;align=left;verticalAlign=middle;spacingTop=-1;spacingLeft=3;spacingRight=3;rotatable=0;labelPosition=right;points=[];portConstraint=eastwest;strokeColor=inherit;" parent="CA3ziQ1xt9Bmq2r24Wff-12" vertex="1">
          <mxGeometry y="52" width="160" height="8" as="geometry" />
        </mxCell>
        <mxCell id="CA3ziQ1xt9Bmq2r24Wff-15" value="+ method(type): type" style="text;strokeColor=none;fillColor=none;align=left;verticalAlign=top;spacingLeft=4;spacingRight=4;overflow=hidden;rotatable=0;points=[[0,0.5],[1,0.5]];portConstraint=eastwest;whiteSpace=wrap;html=1;" parent="CA3ziQ1xt9Bmq2r24Wff-12" vertex="1">
          <mxGeometry y="60" width="160" height="26" as="geometry" />
        </mxCell>
        <mxCell id="XkH1eNv5dXrDn9QbZy__-1" style="edgeStyle=orthogonalEdgeStyle;rounded=0;orthogonalLoop=1;jettySize=auto;html=1;exitX=0.5;exitY=0;exitDx=0;exitDy=0;entryX=0.62;entryY=0.976;entryDx=0;entryDy=0;entryPerimeter=0;endArrow=block;endFill=0;endSize=15;" edge="1" parent="1" source="CA3ziQ1xt9Bmq2r24Wff-16" target="CA3ziQ1xt9Bmq2r24Wff-4">
          <mxGeometry relative="1" as="geometry" />
        </mxCell>
        <mxCell id="CA3ziQ1xt9Bmq2r24Wff-16" value="Projectile" style="swimlane;fontStyle=1;align=center;verticalAlign=top;childLayout=stackLayout;horizontal=1;startSize=26;horizontalStack=0;resizeParent=1;resizeParentMax=0;resizeLast=0;collapsible=1;marginBottom=0;whiteSpace=wrap;html=1;" parent="1" vertex="1">
          <mxGeometry x="445" y="260" width="160" height="86" as="geometry" />
        </mxCell>
        <mxCell id="CA3ziQ1xt9Bmq2r24Wff-17" value="+ field: type" style="text;strokeColor=none;fillColor=none;align=left;verticalAlign=top;spacingLeft=4;spacingRight=4;overflow=hidden;rotatable=0;points=[[0,0.5],[1,0.5]];portConstraint=eastwest;whiteSpace=wrap;html=1;" parent="CA3ziQ1xt9Bmq2r24Wff-16" vertex="1">
          <mxGeometry y="26" width="160" height="26" as="geometry" />
        </mxCell>
        <mxCell id="CA3ziQ1xt9Bmq2r24Wff-18" value="" style="line;strokeWidth=1;fillColor=none;align=left;verticalAlign=middle;spacingTop=-1;spacingLeft=3;spacingRight=3;rotatable=0;labelPosition=right;points=[];portConstraint=eastwest;strokeColor=inherit;" parent="CA3ziQ1xt9Bmq2r24Wff-16" vertex="1">
          <mxGeometry y="52" width="160" height="8" as="geometry" />
        </mxCell>
        <mxCell id="CA3ziQ1xt9Bmq2r24Wff-19" value="+ method(type): type" style="text;strokeColor=none;fillColor=none;align=left;verticalAlign=top;spacingLeft=4;spacingRight=4;overflow=hidden;rotatable=0;points=[[0,0.5],[1,0.5]];portConstraint=eastwest;whiteSpace=wrap;html=1;" parent="CA3ziQ1xt9Bmq2r24Wff-16" vertex="1">
          <mxGeometry y="60" width="160" height="26" as="geometry" />
        </mxCell>
        <mxCell id="XkH1eNv5dXrDn9QbZy__-19" style="edgeStyle=orthogonalEdgeStyle;rounded=0;orthogonalLoop=1;jettySize=auto;html=1;entryX=0.877;entryY=1.015;entryDx=0;entryDy=0;entryPerimeter=0;endSize=15;endArrow=block;endFill=0;" edge="1" parent="1" source="XkH1eNv5dXrDn9QbZy__-3" target="CA3ziQ1xt9Bmq2r24Wff-19">
          <mxGeometry relative="1" as="geometry">
            <Array as="points">
              <mxPoint x="640" y="380" />
              <mxPoint x="585" y="380" />
            </Array>
          </mxGeometry>
        </mxCell>
        <mxCell id="XkH1eNv5dXrDn9QbZy__-3" value="Bullet" style="swimlane;fontStyle=1;align=center;verticalAlign=top;childLayout=stackLayout;horizontal=1;startSize=26;horizontalStack=0;resizeParent=1;resizeParentMax=0;resizeLast=0;collapsible=1;marginBottom=0;whiteSpace=wrap;html=1;" vertex="1" parent="1">
          <mxGeometry x="610" y="400" width="130" height="86" as="geometry" />
        </mxCell>
        <mxCell id="XkH1eNv5dXrDn9QbZy__-4" value="+ field: type" style="text;strokeColor=none;fillColor=none;align=left;verticalAlign=top;spacingLeft=4;spacingRight=4;overflow=hidden;rotatable=0;points=[[0,0.5],[1,0.5]];portConstraint=eastwest;whiteSpace=wrap;html=1;" vertex="1" parent="XkH1eNv5dXrDn9QbZy__-3">
          <mxGeometry y="26" width="130" height="26" as="geometry" />
        </mxCell>
        <mxCell id="XkH1eNv5dXrDn9QbZy__-5" value="" style="line;strokeWidth=1;fillColor=none;align=left;verticalAlign=middle;spacingTop=-1;spacingLeft=3;spacingRight=3;rotatable=0;labelPosition=right;points=[];portConstraint=eastwest;strokeColor=inherit;" vertex="1" parent="XkH1eNv5dXrDn9QbZy__-3">
          <mxGeometry y="52" width="130" height="8" as="geometry" />
        </mxCell>
        <mxCell id="XkH1eNv5dXrDn9QbZy__-6" value="+ method(type): type" style="text;strokeColor=none;fillColor=none;align=left;verticalAlign=top;spacingLeft=4;spacingRight=4;overflow=hidden;rotatable=0;points=[[0,0.5],[1,0.5]];portConstraint=eastwest;whiteSpace=wrap;html=1;" vertex="1" parent="XkH1eNv5dXrDn9QbZy__-3">
          <mxGeometry y="60" width="130" height="26" as="geometry" />
        </mxCell>
        <mxCell id="XkH1eNv5dXrDn9QbZy__-20" style="edgeStyle=orthogonalEdgeStyle;rounded=0;orthogonalLoop=1;jettySize=auto;html=1;exitX=0.5;exitY=0;exitDx=0;exitDy=0;entryX=0.494;entryY=1.015;entryDx=0;entryDy=0;entryPerimeter=0;endSize=15;endArrow=block;endFill=0;" edge="1" parent="1" source="XkH1eNv5dXrDn9QbZy__-11" target="CA3ziQ1xt9Bmq2r24Wff-19">
          <mxGeometry relative="1" as="geometry">
            <Array as="points">
              <mxPoint x="525" y="346" />
            </Array>
          </mxGeometry>
        </mxCell>
        <mxCell id="XkH1eNv5dXrDn9QbZy__-11" value="Missile" style="swimlane;fontStyle=1;align=center;verticalAlign=top;childLayout=stackLayout;horizontal=1;startSize=26;horizontalStack=0;resizeParent=1;resizeParentMax=0;resizeLast=0;collapsible=1;marginBottom=0;whiteSpace=wrap;html=1;" vertex="1" parent="1">
          <mxGeometry x="460" y="400" width="130" height="86" as="geometry" />
        </mxCell>
        <mxCell id="XkH1eNv5dXrDn9QbZy__-12" value="+ field: type" style="text;strokeColor=none;fillColor=none;align=left;verticalAlign=top;spacingLeft=4;spacingRight=4;overflow=hidden;rotatable=0;points=[[0,0.5],[1,0.5]];portConstraint=eastwest;whiteSpace=wrap;html=1;" vertex="1" parent="XkH1eNv5dXrDn9QbZy__-11">
          <mxGeometry y="26" width="130" height="26" as="geometry" />
        </mxCell>
        <mxCell id="XkH1eNv5dXrDn9QbZy__-13" value="" style="line;strokeWidth=1;fillColor=none;align=left;verticalAlign=middle;spacingTop=-1;spacingLeft=3;spacingRight=3;rotatable=0;labelPosition=right;points=[];portConstraint=eastwest;strokeColor=inherit;" vertex="1" parent="XkH1eNv5dXrDn9QbZy__-11">
          <mxGeometry y="52" width="130" height="8" as="geometry" />
        </mxCell>
        <mxCell id="XkH1eNv5dXrDn9QbZy__-14" value="+ method(type): type" style="text;strokeColor=none;fillColor=none;align=left;verticalAlign=top;spacingLeft=4;spacingRight=4;overflow=hidden;rotatable=0;points=[[0,0.5],[1,0.5]];portConstraint=eastwest;whiteSpace=wrap;html=1;" vertex="1" parent="XkH1eNv5dXrDn9QbZy__-11">
          <mxGeometry y="60" width="130" height="26" as="geometry" />
        </mxCell>
        <mxCell id="XkH1eNv5dXrDn9QbZy__-21" style="edgeStyle=orthogonalEdgeStyle;rounded=0;orthogonalLoop=1;jettySize=auto;html=1;exitX=0.5;exitY=0;exitDx=0;exitDy=0;entryX=0.224;entryY=1;entryDx=0;entryDy=0;entryPerimeter=0;endSize=15;endArrow=block;endFill=0;" edge="1" parent="1" source="XkH1eNv5dXrDn9QbZy__-15" target="CA3ziQ1xt9Bmq2r24Wff-19">
          <mxGeometry relative="1" as="geometry">
            <Array as="points">
              <mxPoint x="375" y="380" />
              <mxPoint x="481" y="380" />
            </Array>
          </mxGeometry>
        </mxCell>
        <mxCell id="XkH1eNv5dXrDn9QbZy__-15" value="Laser" style="swimlane;fontStyle=1;align=center;verticalAlign=top;childLayout=stackLayout;horizontal=1;startSize=26;horizontalStack=0;resizeParent=1;resizeParentMax=0;resizeLast=0;collapsible=1;marginBottom=0;whiteSpace=wrap;html=1;" vertex="1" parent="1">
          <mxGeometry x="310" y="400" width="130" height="86" as="geometry" />
        </mxCell>
        <mxCell id="XkH1eNv5dXrDn9QbZy__-16" value="+ field: type" style="text;strokeColor=none;fillColor=none;align=left;verticalAlign=top;spacingLeft=4;spacingRight=4;overflow=hidden;rotatable=0;points=[[0,0.5],[1,0.5]];portConstraint=eastwest;whiteSpace=wrap;html=1;" vertex="1" parent="XkH1eNv5dXrDn9QbZy__-15">
          <mxGeometry y="26" width="130" height="26" as="geometry" />
        </mxCell>
        <mxCell id="XkH1eNv5dXrDn9QbZy__-17" value="" style="line;strokeWidth=1;fillColor=none;align=left;verticalAlign=middle;spacingTop=-1;spacingLeft=3;spacingRight=3;rotatable=0;labelPosition=right;points=[];portConstraint=eastwest;strokeColor=inherit;" vertex="1" parent="XkH1eNv5dXrDn9QbZy__-15">
          <mxGeometry y="52" width="130" height="8" as="geometry" />
        </mxCell>
        <mxCell id="XkH1eNv5dXrDn9QbZy__-18" value="+ method(type): type" style="text;strokeColor=none;fillColor=none;align=left;verticalAlign=top;spacingLeft=4;spacingRight=4;overflow=hidden;rotatable=0;points=[[0,0.5],[1,0.5]];portConstraint=eastwest;whiteSpace=wrap;html=1;" vertex="1" parent="XkH1eNv5dXrDn9QbZy__-15">
          <mxGeometry y="60" width="130" height="26" as="geometry" />
        </mxCell>
        <mxCell id="XkH1eNv5dXrDn9QbZy__-42" style="edgeStyle=orthogonalEdgeStyle;rounded=0;orthogonalLoop=1;jettySize=auto;html=1;entryX=0.289;entryY=1.013;entryDx=0;entryDy=0;entryPerimeter=0;endSize=15;endArrow=block;endFill=0;" edge="1" parent="1" source="XkH1eNv5dXrDn9QbZy__-34" target="CA3ziQ1xt9Bmq2r24Wff-9">
          <mxGeometry relative="1" as="geometry">
            <Array as="points">
              <mxPoint x="110" y="510" />
              <mxPoint x="124" y="510" />
            </Array>
          </mxGeometry>
        </mxCell>
        <mxCell id="XkH1eNv5dXrDn9QbZy__-34" value="Player" style="swimlane;fontStyle=1;align=center;verticalAlign=top;childLayout=stackLayout;horizontal=1;startSize=26;horizontalStack=0;resizeParent=1;resizeParentMax=0;resizeLast=0;collapsible=1;marginBottom=0;whiteSpace=wrap;html=1;" vertex="1" parent="1">
          <mxGeometry x="30" y="570" width="160" height="86" as="geometry" />
        </mxCell>
        <mxCell id="XkH1eNv5dXrDn9QbZy__-35" value="+ field: type" style="text;strokeColor=none;fillColor=none;align=left;verticalAlign=top;spacingLeft=4;spacingRight=4;overflow=hidden;rotatable=0;points=[[0,0.5],[1,0.5]];portConstraint=eastwest;whiteSpace=wrap;html=1;" vertex="1" parent="XkH1eNv5dXrDn9QbZy__-34">
          <mxGeometry y="26" width="160" height="26" as="geometry" />
        </mxCell>
        <mxCell id="XkH1eNv5dXrDn9QbZy__-36" value="" style="line;strokeWidth=1;fillColor=none;align=left;verticalAlign=middle;spacingTop=-1;spacingLeft=3;spacingRight=3;rotatable=0;labelPosition=right;points=[];portConstraint=eastwest;strokeColor=inherit;" vertex="1" parent="XkH1eNv5dXrDn9QbZy__-34">
          <mxGeometry y="52" width="160" height="8" as="geometry" />
        </mxCell>
        <mxCell id="XkH1eNv5dXrDn9QbZy__-37" value="+ method(type): type" style="text;strokeColor=none;fillColor=none;align=left;verticalAlign=top;spacingLeft=4;spacingRight=4;overflow=hidden;rotatable=0;points=[[0,0.5],[1,0.5]];portConstraint=eastwest;whiteSpace=wrap;html=1;" vertex="1" parent="XkH1eNv5dXrDn9QbZy__-34">
          <mxGeometry y="60" width="160" height="26" as="geometry" />
        </mxCell>
        <mxCell id="XkH1eNv5dXrDn9QbZy__-43" style="edgeStyle=orthogonalEdgeStyle;rounded=0;orthogonalLoop=1;jettySize=auto;html=1;entryX=0.754;entryY=0.99;entryDx=0;entryDy=0;entryPerimeter=0;endSize=15;endArrow=block;endFill=0;" edge="1" parent="1" source="XkH1eNv5dXrDn9QbZy__-38" target="CA3ziQ1xt9Bmq2r24Wff-9">
          <mxGeometry relative="1" as="geometry" />
        </mxCell>
        <mxCell id="XkH1eNv5dXrDn9QbZy__-38" value="Enemy" style="swimlane;fontStyle=1;align=center;verticalAlign=top;childLayout=stackLayout;horizontal=1;startSize=26;horizontalStack=0;resizeParent=1;resizeParentMax=0;resizeLast=0;collapsible=1;marginBottom=0;whiteSpace=wrap;html=1;" vertex="1" parent="1">
          <mxGeometry x="220" y="570" width="160" height="86" as="geometry" />
        </mxCell>
        <mxCell id="XkH1eNv5dXrDn9QbZy__-39" value="+ field: type" style="text;strokeColor=none;fillColor=none;align=left;verticalAlign=top;spacingLeft=4;spacingRight=4;overflow=hidden;rotatable=0;points=[[0,0.5],[1,0.5]];portConstraint=eastwest;whiteSpace=wrap;html=1;" vertex="1" parent="XkH1eNv5dXrDn9QbZy__-38">
          <mxGeometry y="26" width="160" height="26" as="geometry" />
        </mxCell>
        <mxCell id="XkH1eNv5dXrDn9QbZy__-40" value="" style="line;strokeWidth=1;fillColor=none;align=left;verticalAlign=middle;spacingTop=-1;spacingLeft=3;spacingRight=3;rotatable=0;labelPosition=right;points=[];portConstraint=eastwest;strokeColor=inherit;" vertex="1" parent="XkH1eNv5dXrDn9QbZy__-38">
          <mxGeometry y="52" width="160" height="8" as="geometry" />
        </mxCell>
        <mxCell id="XkH1eNv5dXrDn9QbZy__-41" value="+ method(type): type" style="text;strokeColor=none;fillColor=none;align=left;verticalAlign=top;spacingLeft=4;spacingRight=4;overflow=hidden;rotatable=0;points=[[0,0.5],[1,0.5]];portConstraint=eastwest;whiteSpace=wrap;html=1;" vertex="1" parent="XkH1eNv5dXrDn9QbZy__-38">
          <mxGeometry y="60" width="160" height="26" as="geometry" />
        </mxCell>
      </root>
    </mxGraphModel>
  </diagram>
</mxfile>
